<svg xmlns="http://www.w3.org/2000/svg" xmlns:xlink="http://www.w3.org/1999/xlink" width="1920" zoomAndPan="magnify" viewBox="0 0 1440 809.999993" height="1080" preserveAspectRatio="xMidYMid meet" version="1.2"><defs><clipPath id="610448f231"><path d="M 1129 546 L 1440 546 L 1440 810 L 1129 810 Z M 1129 546 "/></clipPath><clipPath id="57d3260607"><path d="M 1032.535156 735.53125 L 1456.546875 491.9375 L 1617.945312 772.875 L 1193.933594 1016.46875 Z M 1032.535156 735.53125 "/></clipPath><clipPath id="c6e92db48e"><path d="M 1032.535156 735.53125 L 1456.546875 491.9375 L 1617.945312 772.875 L 1193.933594 1016.46875 Z M 1032.535156 735.53125 "/></clipPath><clipPath id="d0d46f528b"><path d="M 0 0 L 249 0 L 249 271 L 0 271 Z M 0 0 "/></clipPath><clipPath id="93818fc539"><path d="M -241.183594 62.339844 L 182.828125 -181.253906 L 344.226562 99.683594 L -79.78125 343.277344 Z M -241.183594 62.339844 "/></clipPath><clipPath id="90e1c10346"><path d="M -241.183594 62.339844 L 182.828125 -181.253906 L 344.226562 99.683594 L -79.78125 343.277344 Z M -241.183594 62.339844 "/></clipPath><clipPath id="14e9a04baf"><path d="M 1000 754.191406 L 1305 754.191406 L 1305 810 L 1000 810 Z M 1000 754.191406 "/></clipPath><clipPath id="0c6f44fcde"><path d="M 0 413 L 355 413 L 355 810 L 0 810 Z M 0 413 "/></clipPath><clipPath id="ed516ef593"><path d="M 266.804688 373.210938 L 463.738281 1041.550781 L -163.597656 1226.402344 L -360.527344 558.0625 Z M 266.804688 373.210938 "/></clipPath><clipPath id="7b499424bd"><path d="M 266.804688 373.210938 L 463.738281 1041.550781 L -163.597656 1226.402344 L -360.527344 558.0625 Z M 266.804688 373.210938 "/></clipPath><clipPath id="d8930b4766"><path d="M 1131 0 L 1440 0 L 1440 443 L 1131 443 Z M 1131 0 "/></clipPath><clipPath id="fa6f346019"><path d="M 1660.015625 -395.007812 L 1856.949219 273.332031 L 1229.617188 458.179688 L 1032.683594 -210.160156 Z M 1660.015625 -395.007812 "/></clipPath><clipPath id="087a2f2f96"><path d="M 1660.015625 -395.007812 L 1856.949219 273.332031 L 1229.617188 458.179688 L 1032.683594 -210.160156 Z M 1660.015625 -395.007812 "/></clipPath></defs><g id="3cbb77efe5"><rect x="0" width="1440" y="0" height="809.999993" style="fill:#ffffff;fill-opacity:1;stroke:none;"/><rect x="0" width="1440" y="0" height="809.999993" style="fill:#dcc0ff;fill-opacity:1;stroke:none;"/><g clip-rule="nonzero" clip-path="url(#610448f231)"><g clip-rule="nonzero" clip-path="url(#57d3260607)"><g clip-rule="nonzero" clip-path="url(#c6e92db48e)"><path style=" stroke:none;fill-rule:nonzero;fill:#bca2dd;fill-opacity:1;" d="M 1185.316406 808.730469 C 1192.832031 804.289062 1200.71875 800.496094 1208.882812 797.402344 C 1221.429688 792.527344 1233.152344 785.792969 1243.734375 777.503906 C 1253.394531 769.742188 1261.492188 760.550781 1269.035156 750.816406 C 1274.535156 743.726562 1276.113281 735.574219 1275.382812 727.035156 C 1274.417969 716.171875 1273.035156 705.425781 1271.503906 694.644531 C 1270.175781 684.851562 1267.949219 675.207031 1268.042969 665.328125 C 1267.960938 651.507812 1271.414062 637.859375 1278.050781 625.699219 C 1283.023438 616.828125 1287.703125 607.878906 1292.621094 598.914062 C 1296.15625 592.464844 1301.1875 587.121094 1306.628906 582.273438 C 1319.960938 570.441406 1334.914062 561.851562 1352.398438 557.453125 C 1372.980469 552.257812 1393.953125 548.800781 1415.21875 547.140625 C 1430.980469 545.945312 1446.394531 548.628906 1461.597656 552.660156 C 1469.921875 554.753906 1477.96875 557.863281 1485.503906 562.003906 C 1493.976562 566.710938 1501.320312 573.296875 1506.699219 581.375 C 1512.542969 590.050781 1517.960938 598.84375 1520.324219 609.148438 C 1524.964844 629.195312 1523.171875 648.511719 1511.6875 665.914062 C 1507.398438 672.550781 1501.882812 678.546875 1496.347656 684.300781 C 1484.167969 697.070312 1474.140625 711.667969 1466.625 727.648438 C 1460.882812 739.664062 1457.863281 752.570312 1455.1875 765.644531 C 1452.339844 779.925781 1449.878906 794.230469 1446.308594 808.3125 C 1441.140625 828.589844 1434.027344 848.265625 1423.097656 866.207031 C 1416.824219 876.441406 1409.796875 886 1400.558594 893.640625 C 1384.496094 906.921875 1366.226562 913.367188 1345.253906 910.191406 C 1333.472656 908.492188 1321.847656 906.207031 1310.199219 904.304688 C 1299.699219 902.480469 1289.25 900.75 1278.519531 901.515625 C 1266.347656 902.125 1254.554688 905.953125 1244.296875 912.460938 C 1236.625 917.480469 1229.164062 922.871094 1221.691406 928.023438 C 1213.292969 933.707031 1204.523438 938.746094 1194.734375 941.792969 C 1177.414062 947.324219 1162.5625 942.84375 1149.742188 930.566406 C 1138.070312 919.226562 1132.425781 904.914062 1130.132812 889.167969 C 1129.019531 881.460938 1129.183594 873.632812 1130.605469 866.0625 C 1132.628906 855.695312 1138.101562 847.273438 1145.09375 839.574219 C 1152.851562 831.066406 1161.945312 824.246094 1171.449219 817.925781 Z M 1185.316406 808.730469 "/></g></g></g><g clip-rule="nonzero" clip-path="url(#d0d46f528b)"><g clip-rule="nonzero" clip-path="url(#93818fc539)"><g clip-rule="nonzero" clip-path="url(#90e1c10346)"><path style=" stroke:none;fill-rule:nonzero;fill:#bca2dd;fill-opacity:1;" d="M -88.398438 135.539062 C -80.886719 131.097656 -73 127.304688 -64.832031 124.210938 C -52.289062 119.335938 -40.566406 112.601562 -29.984375 104.3125 C -20.324219 96.550781 -12.226562 87.359375 -4.683594 77.621094 C 0.816406 70.535156 2.398438 62.382812 1.664062 53.84375 C 0.703125 42.980469 -0.683594 32.234375 -2.214844 21.453125 C -3.542969 11.660156 -5.769531 2.011719 -5.675781 -7.863281 C -5.757812 -21.683594 -2.304688 -35.332031 4.335938 -47.492188 C 9.304688 -56.363281 13.984375 -65.3125 18.902344 -74.277344 C 22.4375 -80.726562 27.46875 -86.074219 32.910156 -90.917969 C 46.246094 -102.75 61.195312 -111.339844 78.679688 -115.738281 C 99.265625 -120.933594 120.234375 -124.390625 141.5 -126.050781 C 157.261719 -127.246094 172.675781 -124.5625 187.882812 -120.53125 C 196.203125 -118.4375 204.25 -115.328125 211.785156 -111.1875 C 220.261719 -106.480469 227.601562 -99.894531 232.980469 -91.816406 C 238.824219 -83.140625 244.246094 -74.347656 246.605469 -64.042969 C 251.246094 -43.996094 249.457031 -24.679688 237.96875 -7.277344 C 233.679688 -0.640625 228.164062 5.355469 222.632812 11.109375 C 210.449219 23.878906 200.421875 38.476562 192.90625 54.457031 C 187.164062 66.472656 184.144531 79.378906 181.46875 92.453125 C 178.625 106.734375 176.160156 121.039062 172.589844 135.121094 C 167.421875 155.398438 160.3125 175.074219 149.382812 193.015625 C 143.105469 203.246094 136.078125 212.808594 126.839844 220.449219 C 110.777344 233.730469 92.507812 240.175781 71.535156 237 C 59.753906 235.296875 48.128906 233.015625 36.480469 231.113281 C 25.980469 229.289062 15.53125 227.558594 4.800781 228.324219 C -7.371094 228.933594 -19.164062 232.761719 -29.421875 239.269531 C -37.09375 244.289062 -44.554688 249.679688 -52.027344 254.832031 C -60.425781 260.515625 -69.195312 265.554688 -78.984375 268.601562 C -96.304688 274.132812 -111.15625 269.652344 -123.976562 257.375 C -135.648438 246.035156 -141.292969 231.722656 -143.585938 215.976562 C -144.699219 208.269531 -144.535156 200.441406 -143.113281 192.871094 C -141.089844 182.503906 -135.617188 174.082031 -128.625 166.378906 C -120.867188 157.875 -111.773438 151.054688 -102.269531 144.734375 Z M -88.398438 135.539062 "/></g></g></g><path style=" stroke:none;fill-rule:nonzero;fill:#5d2a58;fill-opacity:1;" d="M 393.121094 -252.53125 C 408.191406 -246.445312 420.652344 -237.097656 429.273438 -223.117188 C 438.984375 -207.46875 438.332031 -193.410156 427.464844 -178.632812 C 421.882812 -171.167969 415.074219 -164.722656 407.320312 -159.578125 C 398.121094 -153.347656 388.703125 -147.40625 379.863281 -140.667969 C 365.445312 -129.800781 355.738281 -114.949219 347.914062 -99.007812 C 338.421875 -79.808594 329.800781 -60.101562 319.945312 -41.121094 C 315.382812 -32.28125 308.933594 -24.457031 303.210938 -16.269531 C 299.007812 -10.183594 294.949219 -3.953125 290.167969 1.699219 C 266.1875 30.605469 235.757812 47.996094 198.445312 53.574219 C 180.261719 56.253906 166.0625 49.371094 153.527344 37.273438 C 143.457031 27.5625 138.601562 15.027344 135.488281 1.769531 C 129.691406 -22.863281 134.039062 -46.554688 142.875 -69.664062 C 150.121094 -88.71875 158.671875 -107.339844 163.164062 -127.335938 C 166.207031 -140.957031 168.160156 -154.941406 172.507812 -168.125 C 185.042969 -205.726562 209.023438 -233.765625 245.175781 -250.9375 C 261.695312 -258.761719 279.375 -262.09375 297.414062 -264.050781 C 308.644531 -265.28125 319.945312 -266.296875 331.25 -266.804688 C 350.230469 -267.746094 368.34375 -263.90625 385.730469 -256.152344 C 388.265625 -255.066406 390.660156 -253.761719 393.121094 -252.53125 Z M 389.28125 -249.054688 C 376.386719 -256.445312 359.578125 -259.195312 342.550781 -259.847656 C 330.453125 -260.285156 318.28125 -258.980469 306.179688 -258.109375 C 284.664062 -256.515625 263.433594 -253.257812 244.164062 -242.679688 C 218.007812 -228.332031 196.054688 -209.714844 184.96875 -181.023438 C 180.625 -169.71875 177.4375 -157.984375 174.320312 -146.246094 C 171.496094 -135.667969 170.191406 -124.65625 166.714844 -114.296875 C 161.785156 -99.878906 155.699219 -85.824219 149.613281 -71.839844 C 138.601562 -46.335938 133.894531 -20.328125 142.949219 6.769531 C 147.152344 19.449219 153.308594 30.894531 164.972656 38.9375 C 177.289062 47.414062 190.332031 49.804688 204.675781 46.691406 C 225.90625 42.125 245.757812 34.15625 263.144531 20.96875 C 285.75 3.871094 302.339844 -18.515625 315.597656 -43.148438 C 324.292969 -59.304688 330.234375 -76.910156 337.914062 -93.648438 C 345.015625 -109.296875 352.984375 -124.65625 366.097656 -136.175781 C 375.878906 -144.796875 386.601562 -152.332031 397.179688 -160.011719 C 405.367188 -165.953125 413.046875 -172.328125 419.058594 -180.589844 C 431.160156 -197.105469 430.507812 -215.292969 417.246094 -230.867188 C 410.21875 -238.984375 401.308594 -243.980469 389.28125 -249.054688 Z M 389.28125 -249.054688 "/><g clip-rule="nonzero" clip-path="url(#14e9a04baf)"><path style=" stroke:none;fill-rule:nonzero;fill:#5d2a58;fill-opacity:1;" d="M 1261.113281 769.40625 C 1276.183594 775.492188 1288.644531 784.839844 1297.265625 798.820312 C 1306.972656 814.46875 1306.320312 828.527344 1295.453125 843.304688 C 1289.875 850.769531 1283.066406 857.214844 1275.3125 862.359375 C 1266.113281 868.589844 1256.691406 874.53125 1247.855469 881.269531 C 1233.4375 892.136719 1223.726562 906.992188 1215.902344 922.929688 C 1206.414062 942.128906 1197.789062 961.835938 1187.9375 980.816406 C 1183.371094 989.65625 1176.925781 997.480469 1171.199219 1005.667969 C 1167 1011.753906 1162.941406 1017.984375 1158.160156 1023.636719 C 1134.179688 1052.542969 1103.75 1069.933594 1066.4375 1075.511719 C 1048.253906 1078.191406 1034.050781 1071.308594 1021.519531 1059.210938 C 1011.445312 1049.5 1006.59375 1036.96875 1003.476562 1023.707031 C 997.679688 999.074219 1002.027344 975.382812 1010.867188 952.273438 C 1018.113281 933.21875 1026.660156 914.597656 1031.152344 894.601562 C 1034.195312 880.980469 1036.152344 866.996094 1040.5 853.8125 C 1053.035156 816.210938 1077.015625 788.171875 1113.167969 771 C 1129.6875 763.175781 1147.363281 759.84375 1165.40625 757.886719 C 1176.636719 756.65625 1187.9375 755.640625 1199.238281 755.132812 C 1218.222656 754.191406 1236.335938 758.03125 1253.722656 765.785156 C 1256.257812 766.871094 1258.648438 768.175781 1261.113281 769.40625 Z M 1257.273438 772.882812 C 1244.375 765.492188 1227.566406 762.742188 1210.542969 762.089844 C 1198.441406 761.652344 1186.269531 762.957031 1174.171875 763.828125 C 1152.652344 765.421875 1131.425781 768.683594 1112.152344 779.257812 C 1086 793.605469 1064.046875 812.226562 1052.960938 840.914062 C 1048.613281 852.21875 1045.425781 863.953125 1042.3125 875.691406 C 1039.484375 886.269531 1038.179688 897.28125 1034.703125 907.640625 C 1029.777344 922.058594 1023.691406 936.117188 1017.605469 950.097656 C 1006.59375 975.601562 1001.882812 1001.609375 1010.941406 1028.707031 C 1015.140625 1041.386719 1021.300781 1052.832031 1032.964844 1060.875 C 1045.28125 1069.351562 1058.324219 1071.742188 1072.667969 1068.628906 C 1093.894531 1064.0625 1113.746094 1056.09375 1131.136719 1042.90625 C 1153.742188 1025.808594 1170.332031 1003.421875 1183.589844 978.789062 C 1192.285156 962.632812 1198.226562 945.027344 1205.90625 928.289062 C 1213.003906 912.640625 1220.976562 897.28125 1234.089844 885.761719 C 1243.871094 877.140625 1254.59375 869.605469 1265.167969 861.925781 C 1273.355469 855.984375 1281.035156 849.609375 1287.050781 841.351562 C 1299.148438 824.832031 1298.496094 806.644531 1285.238281 791.070312 C 1278.210938 782.953125 1269.300781 777.957031 1257.273438 772.882812 Z M 1257.273438 772.882812 "/></g><path style=" stroke:none;fill-rule:nonzero;fill:#bca2dd;fill-opacity:1;" d="M 626.109375 207.152344 C 681.253906 182.640625 870.464844 236.972656 909.191406 302.492188 C 947.914062 368.015625 950.9375 412.785156 927.082031 478.386719 C 903.226562 543.992188 843.914062 591.621094 784.191406 600.527344 C 724.472656 609.429688 638.035156 627.324219 584.359375 561.800781 C 530.683594 496.28125 509.851562 490.234375 506.910156 463.4375 C 503.96875 436.640625 489.019531 353.226562 527.742188 293.585938 C 566.46875 233.949219 572.433594 231.007812 626.109375 207.152344 Z M 626.109375 207.152344 "/><g clip-rule="nonzero" clip-path="url(#0c6f44fcde)"><g clip-rule="nonzero" clip-path="url(#ed516ef593)"><g clip-rule="nonzero" clip-path="url(#7b499424bd)"><path style=" stroke:none;fill-rule:nonzero;fill:#bca2dd;fill-opacity:1;" d="M -186.59375 1144.242188 C -193.046875 1119.835938 -199.214844 1095.164062 -206.007812 1070.859375 C -212.671875 1047.617188 -220.351562 1024.679688 -227.183594 1001.488281 C -231.574219 986.59375 -234.609375 971.300781 -240.0625 956.535156 C -247.332031 936.230469 -253.46875 915.414062 -258.367188 894.414062 C -262.65625 876.730469 -262.347656 858.425781 -257.546875 841.007812 C -249.960938 814.304688 -238.464844 789.023438 -223.40625 765.824219 C -216.542969 754.785156 -210.164062 743.339844 -204.445312 731.539062 C -194.746094 711.386719 -181.757812 693.027344 -166.183594 677.214844 C -153.730469 664.53125 -141.328125 651.679688 -129.632812 638.300781 C -122.308594 630.070312 -115.742188 621.144531 -109.878906 611.691406 C -95.960938 589.011719 -78.871094 568.339844 -59.363281 550.265625 C -43.269531 535.585938 -29.15625 518.550781 -17.890625 499.964844 C -6.042969 478.996094 11.976562 465.222656 32.832031 454.847656 C 49.828125 446.34375 66.601562 437.722656 84.234375 430.136719 C 106.746094 420.375 130.625 414.628906 155.121094 413.480469 C 173.292969 412.722656 191.050781 417.425781 206.453125 427.234375 C 245.988281 450.90625 277.882812 485.476562 298.367188 526.902344 C 309.632812 549.523438 320.847656 571.972656 330.417969 595.089844 C 336.660156 611.28125 341.765625 627.988281 345.636719 644.875 C 351.246094 666.402344 356.105469 688.515625 354.253906 710.953125 C 352.304688 736.179688 349.191406 761.195312 345.738281 786.3125 C 344.488281 793.304688 342.121094 800.257812 338.828125 806.5625 C 333.089844 818.921875 326.960938 831.214844 320.394531 843.265625 C 308.574219 864.960938 295.539062 886.277344 277.621094 903.515625 C 261.757812 919.597656 239.894531 928.429688 217.347656 928.082031 C 210.707031 928.015625 204.273438 929.910156 198.726562 933.570312 C 189.03125 939.371094 178.546875 943.746094 167.394531 946.480469 C 157.460938 949.59375 148.140625 954.179688 139.507812 959.847656 C 109.125 979.105469 79.699219 999.730469 54.320312 1025.976562 C 27.085938 1054.050781 1.371094 1083.519531 -23.859375 1113.398438 C -38.191406 1130.3125 -53.058594 1146.652344 -67.34375 1163.738281 C -72.933594 1170.355469 -77.601562 1177.617188 -82.707031 1184.640625 C -89.226562 1193.734375 -97.964844 1200.910156 -107.960938 1205.695312 C -129.15625 1216.171875 -154.761719 1209.183594 -167.867188 1189.679688 C -176.46875 1175.476562 -182.96875 1160.28125 -186.59375 1144.242188 Z M 194.097656 930.335938 C 200.136719 925.242188 207.824219 922.609375 215.582031 922.714844 C 238.496094 923.691406 260.601562 914.417969 276.164062 897.324219 C 287.074219 885.644531 296.738281 872.863281 304.816406 859.078125 C 316.578125 839.054688 326.753906 818.027344 337.371094 797.242188 C 338.820312 794.054688 340.003906 790.578125 340.410156 786.960938 C 345.328125 759.941406 348.132812 732.625 348.875 705.179688 C 349.363281 684.984375 345.25 665.410156 340.121094 646.132812 C 336.351562 629.582031 331.34375 613.214844 325.320312 597.144531 C 316.535156 575.449219 305.652344 554.742188 295.683594 533.398438 C 277.898438 496.140625 250.675781 463.691406 216.566406 439.707031 C 197.570312 425.804688 176.382812 416.964844 151.917969 418.839844 C 133.046875 420.351562 114.367188 424.382812 96.433594 430.957031 C 72.460938 439.492188 50.140625 451.773438 27.550781 463.761719 C 11.230469 472.066406 -2.671875 484.808594 -12.046875 500.449219 C -24.484375 520.671875 -39.652344 539.121094 -57.191406 555.144531 C -76.628906 572.828125 -93.210938 593.351562 -106.453125 615.832031 C -108.460938 619 -110.472656 622.167969 -112.703125 625.21875 C -126.414062 643.605469 -141.644531 660.601562 -158.335938 676.375 C -173.652344 691.191406 -186.652344 708.265625 -196.578125 727.011719 C -206.320312 745.152344 -216.546875 762.882812 -226.675781 780.953125 C -238.097656 800.875 -247.058594 822.277344 -253.203125 844.507812 C -259.15625 866.132812 -255.929688 887.074219 -249.847656 907.722656 C -244.160156 927.019531 -237.628906 946.066406 -231.773438 965.3125 C -223.992188 991.71875 -216.769531 1018.105469 -208.648438 1044.410156 C -199.382812 1074.609375 -190.792969 1105.007812 -183.847656 1136.074219 C -180.144531 1153.011719 -173.683594 1169.320312 -164.832031 1184.371094 C -151.1875 1207.578125 -125.855469 1208.023438 -108.878906 1200.078125 C -97.867188 1194.992188 -90.402344 1185.988281 -83.089844 1176.472656 C -72.203125 1162.226562 -61.214844 1148.320312 -49.789062 1134.652344 C -33.828125 1115.78125 -17.8125 1097.082031 -1.359375 1078.621094 C 32.070312 1040.992188 64.863281 1002.449219 107.828125 974.703125 C 124.683594 963.851562 141.46875 953.386719 158.523438 943.210938 C 168.097656 937.628906 178.023438 933.230469 187.703125 927.988281 C 191.058594 926.265625 192.589844 927.101562 194.097656 930.335938 Z M 225.828125 877.570312 C 211.101562 881.910156 196.023438 881.9375 181.078125 883.03125 C 125.09375 887.199219 71.097656 899.984375 21.625 926.886719 C 4.664062 936.117188 -10.875 947.683594 -20.816406 965.148438 C -23.375 969.582031 -25.441406 974.421875 -27.171875 979.160156 C -32.175781 992.777344 -39 1005.828125 -47.289062 1017.652344 C -54.453125 1027.671875 -64.230469 1035.703125 -75.527344 1041.058594 C -80.425781 1043.789062 -86.261719 1044.585938 -91.800781 1043.277344 C -97.625 1042.234375 -103.144531 1040.363281 -108.640625 1037.9375 C -147.578125 1019.421875 -180.394531 990.460938 -203.625 954.074219 C -211.707031 941.003906 -216.824219 926.140625 -218.238281 910.734375 C -220.226562 892.742188 -223.503906 874.757812 -220.523438 856.773438 C -216.722656 832.839844 -211.753906 809.117188 -199.667969 787.710938 C -184.5625 761.550781 -163.613281 739.007812 -138.664062 721.90625 C -105.792969 698.605469 -73.292969 674.679688 -40.742188 650.921875 C -24.265625 638.160156 -10.949219 621.542969 -2.1875 602.585938 C 7.355469 583.769531 17.871094 565.769531 28.121094 547.480469 C 35.09375 534.941406 41.800781 522.113281 49.429688 509.929688 C 54.265625 502.617188 59.859375 496 65.941406 489.792969 C 72.449219 482.542969 82.070312 478.972656 91.628906 480.203125 C 97.695312 480.804688 103.660156 481.074219 109.585938 482.453125 C 127.890625 485.890625 146.027344 489.375 164.191406 493.589844 C 196.371094 501.03125 221.84375 518.175781 239.773438 546.558594 C 256.308594 573.328125 271.65625 600.449219 281.769531 630.398438 C 292.359375 662.597656 294.777344 697.023438 288.800781 730.425781 C 284.273438 757.515625 279.015625 784.632812 273.933594 811.703125 C 271.707031 824.132812 267.710938 836.164062 262.011719 847.410156 C 260.507812 850.425781 260.269531 853.992188 258.378906 856.941406 C 256.808594 860.347656 254.410156 863.445312 251.375 865.628906 C 243.390625 870.371094 234.9375 874.148438 226.683594 878.605469 Z M 278.058594 635.90625 C 268.054688 604.453125 251.585938 574.167969 232.292969 544.902344 C 218.789062 524.042969 198.277344 508.75 174.34375 501.820312 C 148.589844 494.324219 122.144531 488.871094 95.574219 485.476562 C 83.972656 483.5625 72.472656 488.238281 65.449219 497.484375 C 56.421875 508.054688 48.421875 519.609375 41.953125 532 C 34.125 546.632812 26.125 561.316406 18.125 575.996094 C 13.230469 584.984375 7.679688 593.609375 3.558594 602.734375 C -6.078125 624.335938 -21.316406 643.175781 -40.347656 657.246094 C -73.695312 681.421875 -107.265625 705.476562 -140.394531 729.773438 C -165.957031 748.527344 -187.296875 771.003906 -199.949219 800.488281 C -213.824219 831.433594 -218.828125 865.652344 -214.597656 899.359375 C -211.808594 920.0625 -207.816406 939.855469 -195.527344 957.207031 C -177.570312 983.191406 -154.335938 1005.226562 -127.222656 1021.703125 C -117.429688 1027.464844 -107.332031 1032.398438 -96.820312 1036.84375 C -91.273438 1039.441406 -84.800781 1039.558594 -79.246094 1037.183594 C -69.945312 1033.15625 -61.804688 1027.078125 -55.226562 1019.4375 C -45.242188 1007.113281 -37.601562 993.089844 -32.441406 978.140625 C -27.351562 963.578125 -18.464844 950.65625 -6.71875 940.574219 C 11.039062 924.671875 32.457031 914.3125 54.25 905.867188 C 95.976562 889.527344 139.917969 880.074219 184.667969 877.742188 C 200.660156 877.074219 216.65625 876.410156 231.609375 870.347656 C 242.261719 865.921875 253.742188 861.800781 255.519531 847.851562 C 255.65625 847.074219 256.132812 846.195312 256.492188 845.539062 C 262.242188 834.460938 266.171875 822.820312 268.445312 810.558594 C 273.511719 784.046875 278.574219 757.535156 283.035156 730.835938 C 288.785156 699.15625 287.132812 666.710938 278.058594 635.90625 Z M 170.902344 927.789062 C 171.152344 928.632812 172.585938 929.132812 173.679688 929.726562 C 174.277344 928.632812 175.433594 927.554688 175.523438 926.609375 C 175.5625 925.496094 173.839844 925.265625 172.375 924.042969 C 171.707031 925.527344 170.652344 926.941406 170.902344 927.789062 Z M -169.242188 890.960938 C -174.902344 866.140625 -176.066406 842.199219 -165.15625 819.300781 C -160.835938 810.855469 -155.375 803.171875 -148.933594 796.308594 C -134.542969 780.847656 -118.21875 767.574219 -100.128906 756.539062 C -71.457031 738.34375 -44.632812 717.007812 -20.394531 693.125 C -15.128906 687.894531 -9.746094 682.445312 -3.941406 677.792969 C 15.132812 662.605469 28.882812 643.101562 41.5625 622.441406 C 50.265625 608.285156 59.851562 594.609375 69.703125 581.21875 C 77.753906 569.832031 89.859375 562.21875 103.460938 559.683594 C 120.039062 556.636719 136.140625 557.59375 150.835938 566.878906 C 169.304688 578.363281 186.449219 590.96875 198.289062 609.925781 C 206.351562 623.554688 211.347656 638.636719 213.199219 654.28125 C 216.855469 680.429688 216.589844 707 212.539062 733.210938 C 211.140625 742.820312 210.6875 752.523438 208.949219 762.230469 C 206.792969 774.273438 203.695312 786.222656 200.8125 798.296875 C 200.035156 801.28125 198.921875 804.371094 198.148438 807.359375 C 197.589844 810.464844 198.6875 814.191406 193.25 813.214844 C 192.914062 813.316406 192.144531 814.460938 191.789062 815.117188 C 186.414062 824.980469 177.554688 832.375 166.992188 835.855469 C 157.324219 839.253906 148.253906 844.6875 138.785156 848.765625 C 121.511719 855.695312 103.589844 860.421875 85.238281 863.070312 C 71.585938 865.4375 57.972656 866.691406 44.371094 869.226562 C 37.402344 870.542969 30.582031 872.371094 24.128906 874.824219 C 21.082031 875.722656 18.285156 877.464844 16.195312 879.738281 C 2.003906 899.003906 -18.183594 911.023438 -36.222656 925.351562 C -45.300781 932.625 -54.695312 939.441406 -64.683594 945.511719 C -80.210938 955.238281 -99.519531 956.511719 -116.164062 948.722656 C -143.066406 937.335938 -159.410156 916.210938 -169.222656 890.40625 Z M 119.578125 850.378906 C 123.589844 849.011719 128.71875 847.683594 133.546875 845.339844 C 144.609375 840.425781 155.050781 834.039062 166.679688 830.425781 C 181.238281 826.136719 187.585938 813.964844 193.167969 802.9375 C 199.003906 790.917969 200.78125 776.964844 203.433594 763.488281 C 205.410156 753.339844 205.953125 742.695312 207.320312 732.359375 C 211.351562 706.703125 211.546875 680.523438 207.988281 654.710938 C 206.199219 640.523438 201.820312 626.914062 194.835938 614.4375 C 183.285156 595.214844 166.359375 582.726562 147.941406 571.410156 C 134.441406 563.0625 119.84375 562.214844 104.785156 564.8125 C 89.730469 567.40625 79.378906 575.976562 71.089844 587.800781 C 61.457031 601.308594 52.429688 615.007812 43.675781 628.992188 C 31.835938 648.117188 18.867188 665.921875 1.386719 680.269531 C -4.078125 684.824219 -9.390625 689.882812 -14.367188 694.847656 C -39.710938 719.972656 -67.859375 742.433594 -97.90625 761.589844 C -113.84375 771.804688 -128.773438 783.5625 -142.3125 796.933594 C -158.882812 812.484375 -168.085938 834.328125 -167.605469 857.183594 C -167.847656 892.574219 -154.140625 920.363281 -123.707031 939.355469 C -101.632812 953.089844 -79.996094 952.230469 -59.011719 936.664062 C -49.542969 929.460938 -39.859375 922.375 -30.441406 915.003906 C -15 903.09375 1.027344 891.933594 13.136719 876.222656 C 15.585938 873.292969 18.839844 871.230469 22.394531 870.183594 C 31.4375 867.152344 40.507812 864.847656 49.996094 863.339844 C 73.65625 860.597656 97.035156 856.285156 120.136719 850.398438 Z M 65.636719 834.628906 C 51.308594 837.195312 36.808594 839.8125 21.972656 842.53125 C 19.554688 843.058594 17.132812 843.585938 14.933594 844.234375 C 14.257812 844.433594 13.070312 844.785156 12.953125 845.003906 C 12.265625 850.171875 7.625 848.78125 4.679688 850.015625 C -1.265625 852.320312 -7.378906 854.671875 -13.171875 857.484375 C -22.558594 862.457031 -32.835938 865.671875 -43.492188 866.96875 C -62.070312 868.214844 -79.226562 857.449219 -86.324219 840.222656 C -94.9375 818.480469 -86.296875 793.488281 -66.007812 781.808594 C -47.3125 770.964844 -30.480469 757.542969 -13.378906 744.40625 C -2.128906 735.757812 8.800781 726.652344 20.097656 718.171875 C 41.011719 702.996094 57.324219 682.183594 66.992188 658.179688 C 71.289062 647.164062 77.996094 637.460938 86.484375 629.441406 C 97.960938 619.066406 109.851562 617.585938 123.320312 625.207031 C 127.53125 627.648438 131.386719 630.742188 134.496094 634.425781 C 145.039062 645.851562 150.292969 659.941406 155.089844 674.347656 C 162.261719 697.4375 164.304688 721.855469 160.894531 745.855469 C 159.523438 756.191406 155.214844 765.921875 148.570312 773.953125 C 141.441406 782.859375 134.488281 791.714844 126.871094 800.214844 C 117.097656 811.371094 104.238281 818.289062 91.175781 824.53125 C 83.109375 828.378906 74.578125 831.261719 65.515625 834.851562 Z M 64.140625 829.550781 C 73.03125 826.011719 81.175781 823.0625 88.949219 819.480469 C 101.046875 813.710938 112.945312 807.261719 121.953125 797.25 C 129.972656 788.261719 137.457031 778.699219 144.992188 769.304688 C 151.179688 761.59375 154.859375 752.230469 155.871094 742.550781 C 159.800781 713.429688 155.316406 683.847656 143.191406 657.066406 C 139.554688 647.835938 133.8125 639.59375 126.171875 633.015625 C 112.800781 622.605469 100.734375 622.851562 88.996094 634.21875 C 86.519531 636.421875 84.308594 638.910156 82.539062 641.640625 C 78.109375 648.464844 74.171875 655.695312 70.621094 662.996094 C 62.253906 683.304688 48.898438 701.039062 31.828125 714.898438 C 23.617188 721.367188 15.085938 727.375 6.972656 734.179688 C -16.890625 753.722656 -40.699219 773.429688 -67.597656 788.898438 C -75.003906 793.105469 -80.230469 800.347656 -81.808594 808.722656 C -83 814.042969 -83.636719 819.378906 -84.050781 824.835938 C -85.019531 842.78125 -64.59375 865.277344 -43.921875 861.761719 C -33.972656 859.933594 -24.375 856.921875 -15.34375 852.605469 C -9.042969 849.644531 -2.371094 847.3125 4.25 844.808594 C 6.90625 843.839844 10.402344 844.46875 11.097656 840.582031 C 11.117188 840.023438 12.640625 839.578125 13.65625 839.277344 C 16.195312 838.527344 18.902344 837.730469 21.59375 837.492188 C 36.257812 834.824219 50.808594 832.378906 64.410156 829.839844 Z M 64.140625 829.550781 "/></g></g></g><g clip-rule="nonzero" clip-path="url(#d8930b4766)"><g clip-rule="nonzero" clip-path="url(#fa6f346019)"><g clip-rule="nonzero" clip-path="url(#087a2f2f96)"><path style=" stroke:none;fill-rule:nonzero;fill:#bca2dd;fill-opacity:1;" d="M 1206.621094 376.019531 C 1200.164062 351.613281 1194 326.941406 1187.203125 302.636719 C 1180.542969 279.398438 1172.863281 256.457031 1166.027344 233.265625 C 1161.640625 218.371094 1158.605469 203.078125 1153.148438 188.3125 C 1145.878906 168.011719 1139.746094 147.191406 1134.84375 126.191406 C 1130.554688 108.507812 1130.863281 90.203125 1135.664062 72.785156 C 1143.25 46.082031 1154.75 20.800781 1169.804688 -2.398438 C 1176.671875 -13.433594 1183.046875 -24.878906 1188.769531 -36.683594 C 1198.46875 -56.835938 1211.453125 -75.195312 1227.03125 -91.003906 C 1239.480469 -103.6875 1251.882812 -116.539062 1263.578125 -129.921875 C 1270.902344 -138.148438 1277.472656 -147.074219 1283.332031 -156.527344 C 1297.253906 -179.210938 1314.339844 -199.882812 1333.847656 -217.957031 C 1349.945312 -232.632812 1364.058594 -249.667969 1375.320312 -268.257812 C 1387.171875 -289.226562 1405.1875 -302.996094 1426.046875 -313.375 C 1443.039062 -321.875 1459.816406 -330.5 1477.449219 -338.085938 C 1499.957031 -347.847656 1523.835938 -353.59375 1548.332031 -354.742188 C 1566.507812 -355.5 1584.265625 -350.796875 1599.664062 -340.984375 C 1639.199219 -317.3125 1671.09375 -282.746094 1691.578125 -241.320312 C 1702.84375 -218.699219 1714.058594 -196.25 1723.628906 -173.128906 C 1729.871094 -156.941406 1734.980469 -140.234375 1738.851562 -123.347656 C 1744.457031 -101.820312 1749.320312 -79.703125 1747.46875 -57.269531 C 1745.519531 -32.042969 1742.40625 -7.027344 1738.953125 18.089844 C 1737.699219 25.082031 1735.332031 32.035156 1732.039062 38.339844 C 1726.300781 50.699219 1720.171875 62.992188 1713.605469 75.046875 C 1701.785156 96.738281 1688.75 118.058594 1670.835938 135.292969 C 1654.96875 151.375 1633.105469 160.207031 1610.558594 159.863281 C 1603.917969 159.796875 1597.484375 161.691406 1591.941406 165.347656 C 1582.246094 171.148438 1571.761719 175.527344 1560.609375 178.257812 C 1550.671875 181.371094 1541.351562 185.957031 1532.722656 191.628906 C 1502.339844 210.882812 1472.914062 231.511719 1447.53125 257.753906 C 1420.300781 285.828125 1394.582031 315.300781 1369.351562 345.175781 C 1355.023438 362.09375 1340.152344 378.433594 1325.871094 395.515625 C 1320.277344 402.132812 1315.609375 409.394531 1310.503906 416.417969 C 1303.988281 425.511719 1295.246094 432.6875 1285.25 437.472656 C 1264.054688 447.949219 1238.449219 440.960938 1225.34375 421.460938 C 1216.742188 407.253906 1210.242188 392.058594 1206.621094 376.019531 Z M 1587.308594 162.113281 C 1593.351562 157.023438 1601.039062 154.390625 1608.796875 154.496094 C 1631.710938 155.46875 1653.8125 146.195312 1669.378906 129.101562 C 1680.285156 117.425781 1689.949219 104.644531 1698.03125 90.855469 C 1709.789062 70.835938 1719.96875 49.808594 1730.582031 29.019531 C 1732.035156 25.832031 1733.21875 22.355469 1733.625 18.742188 C 1738.539062 -8.277344 1741.34375 -35.59375 1742.085938 -63.039062 C 1742.574219 -83.238281 1738.460938 -102.8125 1733.335938 -122.089844 C 1729.5625 -138.636719 1724.554688 -155.007812 1718.53125 -171.078125 C 1709.746094 -192.769531 1698.863281 -213.480469 1688.894531 -234.824219 C 1671.109375 -272.078125 1643.886719 -304.53125 1609.777344 -328.511719 C 1590.78125 -342.414062 1569.59375 -351.257812 1545.128906 -349.382812 C 1526.257812 -347.871094 1507.578125 -343.835938 1489.648438 -337.265625 C 1465.671875 -328.730469 1443.351562 -316.449219 1420.761719 -304.457031 C 1404.445312 -296.15625 1390.539062 -283.410156 1381.167969 -267.773438 C 1368.730469 -247.550781 1353.5625 -229.101562 1336.023438 -213.078125 C 1316.582031 -195.394531 1300.003906 -174.871094 1286.757812 -152.386719 C 1284.75 -149.21875 1282.738281 -146.054688 1280.511719 -143.003906 C 1266.796875 -124.613281 1251.570312 -107.617188 1234.878906 -91.847656 C 1219.558594 -77.03125 1206.5625 -59.957031 1196.632812 -41.207031 C 1186.894531 -23.070312 1176.664062 -5.339844 1166.535156 12.730469 C 1155.113281 32.652344 1146.152344 54.058594 1140.007812 76.289062 C 1134.054688 97.910156 1137.28125 118.851562 1143.367188 139.5 C 1149.050781 158.796875 1155.585938 177.84375 1161.441406 197.089844 C 1169.21875 223.496094 1176.445312 249.882812 1184.5625 276.1875 C 1193.828125 306.386719 1202.417969 336.785156 1209.363281 367.851562 C 1213.066406 384.789062 1219.527344 401.097656 1228.378906 416.148438 C 1242.023438 439.355469 1267.359375 439.800781 1284.332031 431.855469 C 1295.34375 426.773438 1302.808594 417.765625 1310.121094 408.253906 C 1321.011719 394.007812 1331.996094 380.097656 1343.421875 366.429688 C 1359.386719 347.5625 1375.398438 328.863281 1391.851562 310.402344 C 1425.28125 272.773438 1458.074219 234.226562 1501.042969 206.480469 C 1517.894531 195.628906 1534.679688 185.164062 1551.734375 174.988281 C 1561.3125 169.40625 1571.238281 165.007812 1580.914062 159.765625 C 1584.269531 158.042969 1585.804688 158.878906 1587.308594 162.113281 Z M 1619.039062 109.347656 C 1604.3125 113.6875 1589.238281 113.714844 1574.289062 114.808594 C 1518.304688 118.980469 1464.308594 131.761719 1414.839844 158.664062 C 1397.875 167.894531 1382.335938 179.464844 1372.394531 196.925781 C 1369.839844 201.359375 1367.769531 206.199219 1366.039062 210.941406 C 1361.039062 224.554688 1354.210938 237.605469 1345.921875 249.429688 C 1338.757812 259.449219 1328.984375 267.480469 1317.683594 272.835938 C 1312.785156 275.566406 1306.949219 276.367188 1301.414062 275.054688 C 1295.585938 274.011719 1290.070312 272.140625 1284.570312 269.714844 C 1245.632812 251.203125 1212.816406 222.238281 1189.585938 185.855469 C 1181.503906 172.78125 1176.386719 157.917969 1174.976562 142.511719 C 1172.984375 124.519531 1169.710938 106.535156 1172.6875 88.550781 C 1176.492188 64.617188 1181.457031 40.894531 1193.546875 19.488281 C 1208.648438 -6.667969 1229.601562 -29.214844 1254.546875 -46.316406 C 1287.417969 -69.617188 1319.921875 -93.542969 1352.472656 -117.296875 C 1368.945312 -130.0625 1382.261719 -146.679688 1391.027344 -165.636719 C 1400.566406 -184.449219 1411.082031 -202.449219 1421.332031 -220.738281 C 1428.304688 -233.28125 1435.011719 -246.109375 1442.644531 -258.292969 C 1447.480469 -265.605469 1453.074219 -272.21875 1459.15625 -278.425781 C 1465.664062 -285.679688 1475.28125 -289.25 1484.84375 -288.019531 C 1490.90625 -287.414062 1496.871094 -287.148438 1502.796875 -285.769531 C 1521.101562 -282.332031 1539.238281 -278.84375 1557.40625 -274.632812 C 1589.582031 -267.191406 1615.054688 -250.042969 1632.984375 -221.660156 C 1649.519531 -194.890625 1664.867188 -167.773438 1674.980469 -137.824219 C 1685.574219 -105.625 1687.988281 -71.199219 1682.011719 -37.796875 C 1677.484375 -10.707031 1672.230469 16.410156 1667.144531 43.480469 C 1664.921875 55.910156 1660.921875 67.941406 1655.222656 79.1875 C 1653.71875 82.207031 1653.484375 85.769531 1651.59375 88.71875 C 1650.019531 92.125 1647.621094 95.222656 1644.585938 97.40625 C 1636.601562 102.148438 1628.148438 105.929688 1619.894531 110.382812 Z M 1671.269531 -132.316406 C 1661.265625 -163.769531 1644.800781 -194.054688 1625.503906 -223.320312 C 1612 -244.175781 1591.488281 -259.472656 1567.554688 -266.402344 C 1541.800781 -273.898438 1515.359375 -279.351562 1488.789062 -282.742188 C 1477.1875 -284.660156 1465.6875 -279.984375 1458.660156 -270.738281 C 1449.632812 -260.167969 1441.632812 -248.613281 1435.167969 -236.222656 C 1427.335938 -221.589844 1419.335938 -206.90625 1411.339844 -192.222656 C 1406.441406 -183.238281 1400.890625 -174.613281 1396.773438 -165.488281 C 1387.132812 -143.882812 1371.898438 -125.046875 1352.863281 -110.976562 C 1319.515625 -86.800781 1285.949219 -62.742188 1252.820312 -38.449219 C 1227.253906 -19.695312 1205.917969 2.78125 1193.265625 32.265625 C 1179.386719 63.210938 1174.386719 97.433594 1178.613281 131.136719 C 1181.402344 151.839844 1185.398438 171.636719 1197.683594 188.988281 C 1215.640625 214.96875 1238.875 237.003906 1265.988281 253.480469 C 1275.78125 259.242188 1285.882812 264.175781 1296.390625 268.625 C 1301.9375 271.21875 1308.410156 271.335938 1313.96875 268.964844 C 1323.265625 264.9375 1331.410156 258.855469 1337.988281 251.214844 C 1347.96875 238.890625 1355.609375 224.867188 1360.769531 209.917969 C 1365.863281 195.355469 1374.75 182.433594 1386.496094 172.351562 C 1404.253906 156.449219 1425.667969 146.09375 1447.460938 137.648438 C 1489.1875 121.304688 1533.128906 111.851562 1577.882812 109.519531 C 1593.875 108.855469 1609.867188 108.1875 1624.820312 102.125 C 1635.476562 97.699219 1646.953125 93.582031 1648.730469 79.628906 C 1648.871094 78.851562 1649.347656 77.976562 1649.703125 77.316406 C 1655.457031 66.242188 1659.382812 54.597656 1661.65625 42.339844 C 1666.722656 15.828125 1671.789062 -10.683594 1676.246094 -37.386719 C 1681.996094 -69.066406 1680.347656 -101.507812 1671.269531 -132.316406 Z M 1564.113281 159.566406 C 1564.363281 160.414062 1565.796875 160.910156 1566.894531 161.507812 C 1567.492188 160.410156 1568.644531 159.335938 1568.734375 158.390625 C 1568.773438 157.273438 1567.050781 157.046875 1565.585938 155.820312 C 1564.921875 157.304688 1563.863281 158.71875 1564.113281 159.566406 Z M 1223.96875 122.742188 C 1218.3125 97.917969 1217.144531 73.980469 1228.058594 51.078125 C 1232.375 42.632812 1237.839844 34.953125 1244.277344 28.085938 C 1258.671875 12.625 1274.996094 -0.648438 1293.082031 -11.679688 C 1321.753906 -29.878906 1348.582031 -51.214844 1372.816406 -75.09375 C 1378.082031 -80.324219 1383.46875 -85.777344 1389.269531 -90.429688 C 1408.34375 -105.613281 1422.097656 -125.121094 1434.773438 -145.78125 C 1443.480469 -159.933594 1453.0625 -173.613281 1462.914062 -187 C 1470.964844 -198.386719 1483.070312 -206.003906 1496.671875 -208.539062 C 1513.25 -211.585938 1529.355469 -210.625 1544.046875 -201.34375 C 1562.515625 -189.859375 1579.660156 -177.25 1591.5 -158.296875 C 1599.5625 -144.667969 1604.558594 -129.582031 1606.410156 -113.941406 C 1610.066406 -87.792969 1609.800781 -61.222656 1605.753906 -35.011719 C 1604.351562 -25.398438 1603.898438 -15.699219 1602.164062 -5.988281 C 1600.007812 6.050781 1596.90625 18.003906 1594.023438 30.074219 C 1593.25 33.0625 1592.136719 36.148438 1591.359375 39.136719 C 1590.804688 42.242188 1591.902344 45.96875 1586.464844 44.996094 C 1586.125 45.09375 1585.359375 46.238281 1585 46.898438 C 1579.628906 56.757812 1570.769531 64.152344 1560.203125 67.632812 C 1550.535156 71.035156 1541.46875 76.464844 1532 80.542969 C 1514.726562 87.472656 1496.800781 92.203125 1478.449219 94.851562 C 1464.800781 97.21875 1451.1875 98.46875 1437.585938 101.003906 C 1430.613281 102.324219 1423.792969 104.148438 1417.34375 106.601562 C 1414.296875 107.5 1411.5 109.242188 1409.410156 111.515625 C 1395.21875 130.78125 1375.027344 142.800781 1356.992188 157.128906 C 1347.914062 164.402344 1338.515625 171.21875 1328.53125 177.289062 C 1313 187.015625 1293.691406 188.292969 1277.046875 180.503906 C 1250.144531 169.113281 1233.800781 147.992188 1223.988281 122.183594 Z M 1512.789062 82.15625 C 1516.804688 80.789062 1521.929688 79.460938 1526.757812 77.121094 C 1537.820312 72.207031 1548.265625 65.816406 1559.894531 62.207031 C 1574.449219 57.917969 1580.796875 45.746094 1586.378906 34.71875 C 1592.21875 22.695312 1593.992188 8.742188 1596.644531 -4.730469 C 1598.621094 -14.878906 1599.164062 -25.527344 1600.535156 -35.863281 C 1604.5625 -61.519531 1604.761719 -87.699219 1601.203125 -113.507812 C 1599.414062 -127.699219 1595.035156 -141.308594 1588.046875 -153.785156 C 1576.496094 -173.007812 1559.570312 -185.496094 1541.152344 -196.808594 C 1527.65625 -205.15625 1513.054688 -206.007812 1498 -203.410156 C 1482.945312 -200.8125 1472.589844 -192.246094 1464.300781 -180.421875 C 1454.667969 -166.910156 1445.644531 -153.214844 1436.886719 -139.230469 C 1425.046875 -120.101562 1412.078125 -102.300781 1394.601562 -87.953125 C 1389.136719 -83.398438 1383.820312 -78.335938 1378.84375 -73.375 C 1353.503906 -48.246094 1325.351562 -25.789062 1295.308594 -6.632812 C 1279.367188 3.582031 1264.4375 15.339844 1250.902344 28.710938 C 1234.328125 44.265625 1225.128906 66.109375 1225.605469 88.960938 C 1225.367188 124.351562 1239.070312 152.140625 1269.503906 171.136719 C 1291.578125 184.867188 1313.21875 184.007812 1334.203125 168.445312 C 1343.667969 161.238281 1353.355469 154.15625 1362.769531 146.78125 C 1378.210938 134.871094 1394.238281 123.710938 1406.347656 108 C 1408.796875 105.070312 1412.054688 103.007812 1415.609375 101.960938 C 1424.648438 98.929688 1433.71875 96.625 1443.207031 95.117188 C 1466.867188 92.375 1490.25 88.0625 1513.347656 82.175781 Z M 1458.847656 66.410156 C 1444.519531 68.976562 1430.023438 71.59375 1415.183594 74.308594 C 1412.765625 74.835938 1410.347656 75.367188 1408.144531 76.015625 C 1407.46875 76.214844 1406.285156 76.5625 1406.164062 76.78125 C 1405.480469 81.949219 1400.839844 80.558594 1397.890625 81.796875 C 1391.949219 84.097656 1385.835938 86.453125 1380.039062 89.261719 C 1370.652344 94.238281 1360.375 97.449219 1349.722656 98.75 C 1331.140625 99.992188 1313.988281 89.226562 1306.886719 72 C 1298.273438 50.257812 1306.914062 25.269531 1327.203125 13.585938 C 1345.898438 2.742188 1362.734375 -10.679688 1379.835938 -23.8125 C 1391.082031 -32.460938 1402.011719 -41.570312 1413.3125 -50.050781 C 1434.226562 -65.226562 1450.535156 -86.039062 1460.203125 -110.042969 C 1464.5 -121.058594 1471.207031 -130.761719 1479.699219 -138.78125 C 1491.175781 -149.15625 1503.066406 -150.632812 1516.53125 -143.011719 C 1520.746094 -140.574219 1524.601562 -137.480469 1527.710938 -133.796875 C 1538.25 -122.371094 1543.507812 -108.28125 1548.304688 -93.875 C 1555.476562 -70.785156 1557.519531 -46.367188 1554.105469 -22.367188 C 1552.734375 -12.03125 1548.429688 -2.296875 1541.78125 5.730469 C 1534.65625 14.636719 1527.699219 23.496094 1520.085938 31.992188 C 1510.3125 43.152344 1497.449219 50.066406 1484.386719 56.308594 C 1476.324219 60.15625 1467.789062 63.039062 1458.730469 66.628906 Z M 1457.351562 61.332031 C 1466.242188 57.792969 1474.386719 54.839844 1482.164062 51.261719 C 1494.261719 45.488281 1506.15625 39.039062 1515.164062 29.027344 C 1523.1875 20.039062 1530.667969 10.476562 1538.203125 1.082031 C 1544.394531 -6.628906 1548.074219 -15.992188 1549.085938 -25.671875 C 1553.011719 -54.789062 1548.527344 -84.375 1536.40625 -111.15625 C 1532.765625 -120.386719 1527.023438 -128.628906 1519.382812 -135.207031 C 1506.015625 -145.617188 1493.945312 -145.371094 1482.210938 -134.003906 C 1479.730469 -131.800781 1477.523438 -129.3125 1475.75 -126.582031 C 1471.324219 -119.757812 1467.382812 -112.527344 1463.832031 -105.226562 C 1455.46875 -84.914062 1442.113281 -67.183594 1425.039062 -53.324219 C 1416.828125 -46.855469 1408.296875 -40.847656 1400.183594 -34.039062 C 1376.324219 -14.5 1352.511719 5.207031 1325.613281 20.675781 C 1318.207031 24.882812 1312.980469 32.125 1311.402344 40.5 C 1310.210938 45.820312 1309.578125 51.15625 1309.160156 56.613281 C 1308.195312 74.558594 1328.621094 97.054688 1349.292969 93.539062 C 1359.238281 91.714844 1368.835938 88.699219 1377.867188 84.382812 C 1384.167969 81.421875 1390.839844 79.089844 1397.460938 76.585938 C 1400.121094 75.621094 1403.613281 76.246094 1404.308594 72.363281 C 1404.328125 71.804688 1405.851562 71.355469 1406.867188 71.054688 C 1409.40625 70.308594 1412.117188 69.507812 1414.804688 69.269531 C 1429.472656 66.601562 1444.019531 64.15625 1457.621094 61.621094 Z M 1457.351562 61.332031 "/></g></g></g></g></svg>
